<svg xmlns="http://www.w3.org/2000/svg" xmlns:xlink="http://www.w3.org/1999/xlink" class="isolate-layer-editing" app-context="doc-2d" x="0px" y="0px" width="842" height="595" jvs-fullPath="gdrive/splash.svg"><title/><desc/><defs/><g id="jvs-guides" transform="matrix(1 0 0 1 0 0)"/><g id="jvs-content" enable-background="new"><g transform="matrix(1,0,0,1,0,0)" name="Layer" jvs-layer-color="#fb0094" class="jvs-layer"><g transform="matrix(1 0 0 1 95.2832 228.838)" class="hidden"><path d="M125.529 100.293Q123.186 100 113.469 100L111.906 100L111.906 45.996L102.238 45.996Q97.942 45.996 97.160 46.436Q96.379 46.875 95.940 47.217L95.793 47.168L95.793 34.668L95.940 34.521Q97.551 35.059 104.631 35.059L135.246 35.059Q139.543 35.059 140.324 34.619Q141.106 34.180 141.545 33.838L141.692 33.887L141.692 46.387L141.545 46.533Q139.934 45.996 132.854 45.996L125.529 45.996L125.529 100.293ZM165.373 100.293Q160.686 100 154.240 100L152.678 100L152.678 34.814Q155.705 35.059 156.975 35.059L158.977 35.059Q162.834 35.059 165.373 34.668L165.373 60.693L188.322 60.693L188.322 34.814Q192.375 35.059 196.208 35.059Q200.041 35.059 201.018 34.668L201.018 100.293Q198.674 100 191.740 100L188.322 100L188.322 72.412L165.373 72.412L165.373 100.293ZM224.113 92.285Q224.113 92.285 221.892 90.161Q219.670 88.037 217.107 82.080Q214.543 76.123 214.543 69.019Q214.543 61.914 216.936 55.566Q219.328 49.219 223.772 44.385Q228.215 39.551 234.514 36.694Q240.813 33.838 248.625 33.838Q262.102 33.838 271.330 42.334Q281.194 51.416 281.194 66.846Q281.194 81.787 271.037 91.699Q264.787 97.803 256.145 100.098Q251.897 101.221 246.208 101.221Q240.520 101.221 234.538 98.877Q228.557 96.533 224.113 92.285M228.117 68.359Q228.117 72.900 229.631 76.709Q231.145 80.518 233.830 83.252Q239.543 89.014 248.527 89.014Q257.072 89.014 262.248 83.496Q267.522 77.783 267.522 67.920Q267.522 58.643 262.492 52.441Q257.072 45.801 247.649 45.801Q238.518 45.801 233.147 52.539Q228.117 58.838 228.117 68.359ZM309.563 101.221Q301.652 101.221 294.670 99.951L294.670 34.619Q301.115 33.838 309.636 33.838Q318.156 33.838 325.066 36.157Q331.975 38.477 336.613 42.773Q345.988 51.367 345.988 66.846Q345.988 84.180 335.539 93.164Q326.164 101.221 309.563 101.221M307.365 89.307Q310.539 89.893 313.713 89.893Q316.887 89.893 320.549 88.647Q324.211 87.402 326.897 84.766Q332.658 79.199 332.658 68.555Q332.658 51.074 319.914 47.070Q315.715 45.752 310.197 45.752L308.879 45.752Q308.147 45.752 307.365 45.801L307.365 89.307ZM365.080 100.391Q360.881 100 355.266 100L351.408 100L372.649 40.479Q374.065 36.475 374.065 35.815Q374.065 35.156 374.016 35.010L374.065 34.912Q377.238 35.059 380.803 35.059Q383.733 35.059 387.834 34.961L387.883 35.059Q387.785 35.254 387.785 35.596Q387.785 36.523 389.250 40.527L410.930 100.146Q409.953 100.098 408.635 100.098Q408.635 100.098 406.096 100Q404.875 100 403.899 100L396.330 100L391.740 85.938L369.670 85.938L365.080 100.391M387.932 74.219L380.559 51.514L373.381 74.219L387.932 74.219ZM446.574 100.195Q445.012 100 441.447 100L436.076 100Q434.758 100 433.684 100.098L433.635 100Q433.830 99.658 433.830 99.219Q433.830 98.779 433.757 98.291Q433.684 97.803 433.342 96.533Q433.000 95.264 432.268 92.871L430.217 86.328L412.053 34.863Q415.080 35.059 419.768 35.059Q424.455 35.059 425.774 34.668L440.471 79.053L453.361 34.863Q456.291 35.059 460.588 35.059Q466.447 35.059 467.424 34.668L449.602 86.182Q449.602 86.182 447.893 91.895Q446.477 96.777 446.477 98.218Q446.477 99.658 446.672 100.049L446.574 100.195ZM481.779 100.391Q477.580 100 471.965 100L468.108 100L489.348 40.479Q490.764 36.475 490.764 35.815Q490.764 35.156 490.715 35.010L490.764 34.912Q493.938 35.059 497.502 35.059Q500.432 35.059 504.533 34.961L504.582 35.059Q504.485 35.254 504.485 35.596Q504.485 36.523 505.949 40.527L527.629 100.146Q526.652 100.098 525.334 100.098Q525.334 100.098 522.795 100Q521.574 100 520.598 100L513.029 100L508.440 85.938L486.369 85.938L481.779 100.391M504.631 74.219L497.258 51.514L490.080 74.219L504.631 74.219Z" stroke-width="1" stroke="#000000" fill="none" transform="matrix(1 0 0 1 0 0)"/></g></g><g transform="matrix(1,0,0,1,0,0)" name="G" jvs-layer-color="#fb0094" class="jvs-layer isolate-layer selected"><path d="M 179.40341186523438 143.33663940429688 Q 176.05484008789062 142.91790771484375 162.16751098632812 142.91790771484375 L 159.93370056152344 142.91790771484375 L 159.93370056152344 65.73652648925781 L 146.11639404296875 65.73652648925781 Q 139.97665405273438 65.73652648925781 138.85903930664062 66.3653564453125 Q 137.7428436279297 66.99276733398438 137.1154327392578 67.48155212402344 L 136.90533447265625 67.41152954101562 L 136.90533447265625 49.54676818847656 L 137.1154327392578 49.33668518066406 Q 139.4178466796875 50.10557556152344 149.5364227294922 50.10557556152344 L 193.29074096679688 50.10557556152344 Q 199.43191528320312 50.10557556152344 200.5481414794922 49.47674560546875 Q 201.66574096679688 48.849334716796875 202.29315185546875 48.360565185546875 L 202.50323486328125 48.43060302734375 L 202.50323486328125 66.29533386230469 L 202.29315185546875 66.50399780273438 Q 199.99075317382812 65.73652648925781 189.87216186523438 65.73652648925781 L 179.40341186523438 65.73652648925781 L 179.40341186523438 143.33663940429688 Z M 236.34762573242188 143.33663940429688 Q 229.64907836914062 142.91790771484375 220.43658447265625 142.91790771484375 L 218.20419311523438 142.91790771484375 L 218.20419311523438 49.75543212890625 Q 222.5303192138672 50.10557556152344 224.3453826904297 50.10557556152344 L 227.20660400390625 50.10557556152344 Q 232.71893310546875 50.10557556152344 236.34762573242188 49.54676818847656 L 236.34762573242188 86.74118041992188 L 269.1458740234375 86.74118041992188 L 269.1458740234375 49.75543212890625 Q 274.9383239746094 50.10557556152344 280.4163513183594 50.10557556152344 Q 285.8944091796875 50.10557556152344 287.29071044921875 49.54676818847656 L 287.29071044921875 143.33663940429688 Q 283.94073486328125 142.91790771484375 274.0307922363281 142.91790771484375 L 269.1458740234375 142.91790771484375 L 269.1458740234375 103.48971557617188 L 236.34762573242188 103.48971557617188 L 236.34762573242188 143.33663940429688 Z M 320.297607421875 131.89181518554688 Q 320.297607421875 131.89181518554688 317.1234130859375 128.85623168945312 Q 313.94775390625 125.82064819335938 310.2847595214844 117.3070068359375 Q 306.620361328125 108.79339599609375 306.620361328125 98.6405029296875 Q 306.620361328125 88.4862060546875 310.0404052734375 79.41375732421875 Q 313.458984375 70.34275817871094 319.81024169921875 63.434112548828125 Q 326.16009521484375 56.52546691894531 335.1625061035156 52.442291259765625 Q 344.1649169921875 48.360565185546875 355.32965087890625 48.360565185546875 Q 374.59063720703125 48.360565185546875 387.77911376953125 60.50285339355469 Q 401.8765563964844 73.482666015625 401.8765563964844 95.534912109375 Q 401.8765563964844 116.88827514648438 387.3603515625 131.05429077148438 Q 378.427978515625 139.77801513671875 366.0770568847656 143.05795288085938 Q 360.00592041015625 144.66293334960938 351.87530517578125 144.66293334960938 Q 343.74615478515625 144.66293334960938 335.19677734375 141.31292724609375 Q 326.6488952636719 137.96295166015625 320.297607421875 131.89181518554688 M 326.02001953125 97.697265625 Q 326.02001953125 104.18716430664062 328.1838073730469 109.63088989257812 Q 330.34759521484375 115.07464599609375 334.1849365234375 118.98202514648438 Q 342.3498229980469 127.21694946289062 355.1895751953125 127.21694946289062 Q 367.4018859863281 127.21694946289062 374.79931640625 119.33074951171875 Q 382.3368225097656 111.16583251953125 382.3368225097656 97.06985473632812 Q 382.3368225097656 83.81134033203125 375.1480407714844 74.94757080078125 Q 367.4018859863281 65.45782470703125 353.93475341796875 65.45782470703125 Q 340.88494873046875 65.45782470703125 333.20880126953125 75.087646484375 Q 326.02001953125 84.09002685546875 326.02001953125 97.697265625 Z M 442.4208984375 144.66293334960938 Q 431.1147155761719 144.66293334960938 421.13616943359375 142.84786987304688 L 421.13616943359375 49.47674560546875 Q 430.34722900390625 48.360565185546875 442.52520751953125 48.360565185546875 Q 454.70184326171875 48.360565185546875 464.5774841308594 51.67481994628906 Q 474.4516906738281 54.99052429199219 481.0802307128906 61.13026428222656 Q 494.4787902832031 73.41264343261719 494.4787902832031 95.534912109375 Q 494.4787902832031 120.30828857421875 479.5452880859375 133.14804077148438 Q 466.146728515625 144.66293334960938 442.4208984375 144.66293334960938 M 439.2795715332031 127.63568115234375 Q 443.8157958984375 128.47320556640625 448.35205078125 128.47320556640625 Q 452.88824462890625 128.47320556640625 458.1219177246094 126.69244384765625 Q 463.35552978515625 124.91311645507812 467.1943054199219 121.14578247070312 Q 475.42779541015625 113.18954467773438 475.42779541015625 97.97738647460938 Q 475.42779541015625 72.99388122558594 457.21435546875 67.27146911621094 Q 451.2132263183594 65.38780212402344 443.3270263671875 65.38780212402344 L 441.443359375 65.38780212402344 Q 440.397216796875 65.38780212402344 439.2795715332031 65.45782470703125 L 439.2795715332031 127.63568115234375 Z M 521.7646484375 143.47671508789062 Q 515.7635498046875 142.91790771484375 507.7386779785156 142.91790771484375 L 502.22491455078125 142.91790771484375 L 532.5821533203125 57.85174560546875 Q 534.6058349609375 52.129302978515625 534.6058349609375 51.18603515625 Q 534.6058349609375 50.24421691894531 534.5357666015625 50.035552978515625 L 534.6058349609375 49.89549255371094 Q 539.140625 50.10557556152344 544.2356567382812 50.10557556152344 Q 548.423095703125 50.10557556152344 554.2841796875 49.96551513671875 L 554.354248046875 50.10557556152344 Q 554.2141723632812 50.38427734375 554.2141723632812 50.873046875 Q 554.2141723632812 52.197906494140625 556.307861328125 57.92033386230469 L 587.29248046875 143.12655639648438 Q 585.896240234375 143.05795288085938 584.0125732421875 143.05795288085938 Q 584.0125732421875 143.05795288085938 580.3838500976562 142.91790771484375 Q 578.6388549804688 142.91790771484375 577.243896484375 142.91790771484375 L 566.4264526367188 142.91790771484375 L 559.8665771484375 122.82077026367188 L 528.3245849609375 122.82077026367188 L 521.7646484375 143.47671508789062 M 554.42431640625 106.07223510742188 L 543.8869018554688 73.62272644042969 L 533.6282958984375 106.07223510742188 L 554.42431640625 106.07223510742188 Z M 638.2341918945312 143.19659423828125 Q 636.0017700195312 142.91790771484375 630.90673828125 142.91790771484375 L 623.2306518554688 142.91790771484375 Q 621.3469848632812 142.91790771484375 619.81201171875 143.05795288085938 L 619.7420654296875 142.91790771484375 Q 620.0206909179688 142.42910766601562 620.0206909179688 141.80169677734375 Q 620.0206909179688 141.1728515625 619.9163818359375 140.47543334960938 Q 619.81201171875 139.77801513671875 619.3233032226562 137.96295166015625 Q 618.83447265625 136.14932250976562 617.788330078125 132.72927856445312 L 614.8570556640625 123.378173828125 L 588.8975219726562 49.82545471191406 Q 593.2235717773438 50.10557556152344 599.923583984375 50.10557556152344 Q 606.6221313476562 50.10557556152344 608.5072021484375 49.54676818847656 L 629.511962890625 112.98089599609375 L 647.9339599609375 49.82545471191406 Q 652.1214599609375 50.10557556152344 658.2626953125 50.10557556152344 Q 666.63623046875 50.10557556152344 668.0325927734375 49.54676818847656 L 642.5617065429688 123.16949462890625 Q 642.5617065429688 123.16949462890625 640.1192626953125 131.33438110351562 Q 638.0955810546875 138.31167602539062 638.0955810546875 140.37112426757812 Q 638.0955810546875 142.42910766601562 638.3742065429688 142.9879150390625 L 638.2341918945312 143.19659423828125 Z M 688.5484619140625 143.47671508789062 Q 682.5472412109375 142.91790771484375 674.5224609375 142.91790771484375 L 669.0101318359375 142.91790771484375 L 699.3658447265625 57.85174560546875 Q 701.3896484375 52.129302978515625 701.3896484375 51.18603515625 Q 701.3896484375 50.24421691894531 701.319580078125 50.035552978515625 L 701.3896484375 49.89549255371094 Q 705.92578125 50.10557556152344 711.0194091796875 50.10557556152344 Q 715.2069091796875 50.10557556152344 721.0679931640625 49.96551513671875 L 721.137939453125 50.10557556152344 Q 720.999267578125 50.38427734375 720.999267578125 50.873046875 Q 720.999267578125 52.197906494140625 723.0916748046875 57.92033386230469 L 754.076416015625 143.12655639648438 Q 752.6800537109375 143.05795288085938 750.7962646484375 143.05795288085938 Q 750.7962646484375 143.05795288085938 747.167724609375 142.91790771484375 Q 745.422607421875 142.91790771484375 744.02783203125 142.91790771484375 L 733.210205078125 142.91790771484375 L 726.6517333984375 122.82077026367188 L 695.1083984375 122.82077026367188 L 688.5484619140625 143.47671508789062 M 721.2080078125 106.07223510742188 L 710.670654296875 73.62272644042969 L 700.4119873046875 106.07223510742188 L 721.2080078125 106.07223510742188 Z" stroke-width="1.4291790261844983" stroke="rgb(255,255,255)" fill="rgb(255,255,255)" transform="matrix(1 0 0 1 -44.7952 179.086)" selected="true" fill-opacity="1" stroke-opacity="1"/></g></g></svg>